<svg width="300" height="154" viewBox="0 0 300 154" fill="none" xmlns="http://www.w3.org/2000/svg">
<path d="M124 78L65 54L66.7744 60.2222" stroke="#FFFEE4" stroke-width="2"/>
<path d="M135.572 82.5123C134.073 80.7279 132.515 75.9101 138.269 70.9138C145.461 64.6684 154.002 66.0067 158.947 69.1294C163.892 72.2521 167.039 83.4044 162.993 90.0959C159.756 95.449 153.253 97.6795 150.406 98.1256" stroke="#FFFEE4" stroke-width="2"/>
<path d="M152.115 36.8038C146.939 39.0082 139.249 48.8837 149.897 70.751C152.115 81.7728 138.361 82.2137 134.368 86.1816C130.375 90.1494 127.27 106.021 145.46 99.4078C155.221 92.3538 151.228 84.4181 161.432 86.1816C171.637 87.9451 186.721 99.4078 190.714 90.1494" stroke="#FFFEE4" stroke-width="2"/>
<path d="M172 75L274 29H263.403" stroke="#FFFEE4" stroke-width="2"/>
<path d="M278 25.5917C278 24.0537 280.085 26 278.233 26" stroke="#FFFEE4" stroke-width="3" stroke-linecap="round"/>
<path d="M283.71 23C282.906 22.9072 282.766 21.4486 283.387 21.1446C284.43 20.6341 285 21.5759 285 22.4036" stroke="#FFFEE4" stroke-width="3" stroke-linecap="round"/>
<path d="M58 53C57.4754 52.2492 56.7655 51.7279 56.1429 51.1975C56.0652 51.1314 56.0361 51.1124 56 51" stroke="#FFFEE4" stroke-width="3" stroke-linecap="round"/>
<path d="M51 48C50.5034 47.5185 49.6067 47.2206 49 47" stroke="#FFFEE4" stroke-width="3" stroke-linecap="round"/>
<path d="M42 45C41.5463 44.9653 41.0421 44.6141 40.5859 44.5C40.1686 44.3957 39.2932 44.2016 39 44" stroke="#FFFEE4" stroke-width="3" stroke-linecap="round"/>
<path d="M1 34.5055C10.615 37.8755 26.4197 41.6264 12.7183 29.6703C19.9296 34.5055 19.9296 41.978 25.7887 20C22.1831 34.5055 14.9718 41.5385 33 33.1868C24.4366 36.5546 19.9296 38.4615 31.6479 41.978C25.338 40.2198 21.7324 33.6264 22.6338 50.3297C21.7324 40.6593 22.1831 30.5495 14.5211 60C17.5335 49.011 23.9859 34.0659 10.0141 46.3736C17.2254 40.2198 23.9859 39.3407 1 34.5055Z" stroke="#FFFEE4" stroke-width="2"/>
<path d="M242.733 36.052C233.836 32.9934 228.389 37.3264 226.777 39.8753C224.681 43.0614 221.748 50.3893 226.777 54.2126C233.063 58.9917 239.832 58.9917 249.019 55.6463C258.206 52.301 253.855 39.8753 242.733 36.052Z" stroke="#FFFEE4" stroke-width="2"/>
<path d="M238.972 24.1724C235.139 38.1137 241.846 70.3227 273.465 65.5154C310.354 52.5356 297.419 22.7302 294.065 16" stroke="#FFFEE4" stroke-width="2"/>
<path d="M256 3C253.111 3.57143 246.467 5.57143 243 9" stroke="#FFFEE4" stroke-width="2"/>
<path d="M266 1C265.243 1 263.182 1.2 261 2" stroke="#FFFEE4" stroke-width="2"/>
<path d="M290 9C289.369 8.25926 287.537 6.6 285.263 5.88889M279.579 3.22222C279.105 2.48148 276.926 1 272 1" stroke="#FFFEE4" stroke-width="2"/>
<path d="M122.5 98L101 108" stroke="#FFFEE4" stroke-width="2"/>
<path d="M80 120.5C80 125.703 75.5672 130 70 130C64.4328 130 60 125.703 60 120.5C60 115.297 64.4328 111 70 111C75.5672 111 80 115.297 80 120.5Z" stroke="#FFFEE4" stroke-width="2"/>
<path d="M65.0289 123.058C66.3072 124.336 68.0498 124.864 69.872 124.864C71.0986 124.864 73.4018 124.649 73.4018 123.058" stroke="#FFFEE4" stroke-width="2" stroke-linecap="round"/>
<path d="M67.1632 118.625C67.2862 117.518 68.7411 119.414 67.1632 118.625" stroke="#FFFEE4" stroke-width="2" stroke-linecap="round"/>
<path d="M72.5809 118.954C72.4853 118.942 72.1386 118.643 72.3529 118.643C72.6951 118.643 72.8542 118.954 72.4167 118.954" stroke="#FFFEE4" stroke-width="2" stroke-linecap="round"/>
<path d="M67.984 104.67C68.0647 106.689 70.7548 106.805 72.2525 106.805C72.8931 106.805 73.776 105.781 72.9822 105.327C72.1394 104.846 71.4618 105.388 70.9026 105.947C70.4445 106.405 69.9541 107.201 69.9541 107.872C69.9541 108.401 69.4458 109.74 69.8264 110.216C70.1637 110.637 70.5315 111.592 70.7749 112.14C70.905 112.433 71.08 112.727 71.2675 112.961C71.4741 113.219 71.9498 113.095 72.0883 113.372" stroke="#FFFEE4" stroke-width="2" stroke-linecap="round"/>
<path d="M56.6561 120.103C55.4186 118.711 58.059 116.715 59.447 117.64" stroke="#FFFEE4" stroke-width="2" stroke-linecap="round"/>
<path d="M81.1179 119.118C81.879 119.022 82.1551 118.399 83.0059 118.871C83.4716 119.13 83.6449 119.662 83.9909 119.938C84.7996 120.585 82.1059 122.622 81.2821 122.073" stroke="#FFFEE4" stroke-width="2" stroke-linecap="round"/>
<path d="M98.5708 109.343C98.3983 109.365 98.0487 109.594 97.8963 109.695C97.6735 109.844 97.3302 110.048 97.0718 110.137C96.8427 110.217 96.6293 110.329 96.4123 110.437C96.1849 110.551 95.5696 110.691 95.4679 110.894" stroke="#FFFEE4" stroke-width="2" stroke-linecap="round"/>
<path d="M166.955 40.4594C167.078 40.3361 167.212 39.9403 167.27 39.7664C167.354 39.5122 167.499 39.1399 167.647 38.9103C167.779 38.7068 167.878 38.4872 167.982 38.268C168.092 38.0384 168.49 37.549 168.445 37.3263" stroke="#FFFEE4" stroke-width="2" stroke-linecap="round"/>
<path d="M91.6229 112.648C90.7695 112.743 89.9618 113.02 89.3594 113.623C89.1753 113.807 88.9416 113.943 88.7523 114.132C88.5994 114.285 88.5028 114.512 88.3176 114.605" stroke="#FFFEE4" stroke-width="2" stroke-linecap="round"/>
<path d="M170.395 33.5766C171.009 32.9764 171.474 32.2607 171.578 31.4152C171.61 31.1567 171.71 30.9054 171.743 30.6398C171.769 30.425 171.705 30.187 171.794 30" stroke="#FFFEE4" stroke-width="2" stroke-linecap="round"/>
<path d="M162 98C163.431 99.4107 165.264 100.144 167 101" stroke="#FFFEE4" stroke-width="2" stroke-linecap="round"/>
<path d="M170.5 103.396C172 105 173.5 107 175.5 107.5" stroke="#FFFEE4" stroke-width="2" stroke-linecap="round"/>
<path d="M141.481 107.091C139.763 112.165 137 117 134 122.5" stroke="#FFFEE4" stroke-width="2" stroke-linecap="round"/>
<path d="M164.481 45.1581C162.763 50.2327 160 55.0673 157 60.5673" stroke="#FFFEE4" stroke-width="2" stroke-linecap="round"/>
<path d="M178.839 110.807C179.575 111.408 180 112 181.103 112.846C182.206 113.691 182.5 113.5 183 114C184.604 114.728 186.06 115.78 187.5 116.5" stroke="#FFFEE4" stroke-width="2" stroke-linecap="round"/>
<path d="M190.5 118C193.167 120 197.5 121 193.5 109C195.017 115 196 124 203.5 111.5C200 116.346 193.5 122 206 120C201.5 120.41 194 121 203.5 126.5C199.927 124 192 118 201 135C198.5 129.93 195 118 190.5 130.5C193.5 123 197.5 121.5 187 123C197 121.5 194 120.5 190.5 118Z" stroke="#FFFEE4" stroke-width="2"/>
<path d="M174.11 22.8035C175.387 19.7247 175.284 15.2787 164.647 22.1246C170.085 19.1701 178.561 15.9894 164.594 11.817C170.156 14.0084 177.243 18.9067 172.211 7.29078C173.722 11.5491 176.15 18.6698 179.127 8.104C177.589 12.1848 173.738 21.3502 187.981 8.42215C183.689 12.0992 172.996 18.4435 186.221 19.7093C178.211 18.6592 175.768 15.1549 179.82 24.9569C175.892 15.6394 175.665 18.7936 174.11 22.8035Z" stroke="#FFFEE4" stroke-width="2"/>
<path d="M137.329 127C134.787 129.156 122 135.5 141.988 132.651C135.801 132.797 122.5 132.651 137.329 141.846C133.381 137.357 127.5 137.5 128 147.5C128.599 143.021 126.973 132.459 119.5 140.5C122.731 137.571 126.859 132.035 115.5 135.5C124.359 130.686 127.5 131.924 122.5 127C127.5 131.5 127.616 131.109 128.486 120.538C127.728 130.622 134.114 129.857 137.329 127Z" stroke="#FFFEE4" stroke-width="2"/>
<path d="M209 130L235 140" stroke="#FFFEE4" stroke-width="2"/>
<path d="M255.853 132.674C248.253 133.474 243.353 142.674 241.853 147.174C244.653 149.574 248.686 146.841 250.353 145.174C255.353 140.674 263.453 131.874 255.853 132.674Z" stroke="#FFFEE4" stroke-width="2"/>
<path d="M247.853 143.174C247.353 142.174 244.953 139.374 239.353 136.174C232.353 132.174 236.853 123.674 247.853 130.674C249.853 135.174 249.853 137.674 251.353 139.674" stroke="#FFFEE4" stroke-width="2"/>
<path d="M248.353 147.674C248.853 150.341 251.253 154.574 256.853 150.174C263.853 144.674 259.353 138.674 255.353 141.174" stroke="#FFFEE4" stroke-width="2"/>
</svg>
