<svg width="89" height="436" viewBox="0 0 89 436" fill="none" xmlns="http://www.w3.org/2000/svg">
<path d="M82 31V144" stroke="#F3E5D1" stroke-width="2" stroke-linecap="round"/>
<path d="M82 151V157.352" stroke="#F3E5D1" stroke-width="2" stroke-linecap="round"/>
<path d="M82 164V171.259" stroke="#F3E5D1" stroke-width="2" stroke-linecap="round"/>
<path d="M81.9303 178.842V188.473" stroke="#F3E5D1" stroke-width="2" stroke-linecap="round"/>
<path d="M81.9303 234V237.327" stroke="#F3E5D1" stroke-width="2" stroke-linecap="round"/>
<path d="M82 16V24" stroke="#F3E5D1" stroke-width="2" stroke-linecap="round"/>
<path d="M82 1V9" stroke="#F3E5D1" stroke-width="2" stroke-linecap="round"/>
<path d="M81.9303 196.584V227.634" stroke="#F3E5D1" stroke-width="2" stroke-linecap="round"/>
<path d="M81.9303 243V245.664" stroke="#F3E5D1" stroke-width="2" stroke-linecap="round"/>
<path d="M81.9303 274V276.664" stroke="#F3E5D1" stroke-width="2" stroke-linecap="round"/>
<path d="M81.9303 283V305.133" stroke="#F3E5D1" stroke-width="2" stroke-linecap="round"/>
<path d="M81.9303 310V315.487" stroke="#F3E5D1" stroke-width="2" stroke-linecap="round"/>
<path d="M81.9028 342.887L81.9303 350" stroke="#F3E5D1" stroke-width="2" stroke-linecap="round"/>
<path d="M76.9303 259.823C79.5493 260.344 84.0017 260.97 80.8589 259.301C79.4303 257.215 78.597 255.998 78.3589 255.651C79.9065 257.91 82.8589 261.491 82.2874 257.737C82.2874 253.982 82.2874 252.348 82.2874 252C82.1684 254.434 82.3589 259.301 84.0732 259.301C85.7874 259.301 86.6922 259.301 86.9303 259.301C84.7874 259.127 81.2874 259.51 84.4303 262.43C87.5732 265.351 86.9303 265.038 86.216 264.516C85.1446 262.778 82.716 259.927 81.5732 262.43C80.4303 264.933 79.6684 266.602 79.4303 267.124" stroke="#FFFEE4" stroke-width="2"/>
<path d="M84.8939 322.498C83.0087 325.297 79.9396 330.215 82.7451 327.499C84.7117 327.083 85.8588 326.84 86.1866 326.77C84.0561 327.222 80.3721 328.532 82.6798 330.165C84.6353 332.479 85.4864 333.485 85.6674 333.699C84.4733 332.058 81.8209 329.286 80.7647 331.328C79.7086 333.371 79.1511 334.448 79.0044 334.732C80.4152 332.286 82.3724 327.881 78.9151 329.826C75.4577 331.771 76.0167 331.198 76.7284 330.668C78.2939 330.463 81.275 329.326 80.6754 326.423C80.0758 323.519 79.676 321.583 79.5511 320.978" stroke="#FFFEE4" stroke-width="2"/>
<path d="M81.9303 356.357C81.3439 368.186 72.2619 406.718 58.2098 402.236C39.4458 396.252 55.0247 346.956 62.2252 393.592C67.7688 429.498 42.1457 431.999 26.4303 435" stroke="#FFFEE4" stroke-width="2"/>
<path d="M14.5878 434.746H21.243" stroke="#FFFEE4" stroke-width="2" stroke-linecap="round"/>
<path d="M1 434.746H9.59634" stroke="#FFFEE4" stroke-width="2" stroke-linecap="round"/>
</svg>
